<?xml version="1.0" encoding="UTF-8"?>
<svg id="Layer_1" data-name="Layer 1" xmlns="http://www.w3.org/2000/svg" viewBox="0 0 560 560">
  <defs>
    <style>
      .cls-1 {
        fill: #f4730b;
      }

      .cls-1, .cls-2, .cls-3, .cls-4, .cls-5, .cls-6 {
        fill-rule: evenodd;
      }

      .cls-2 {
        fill: #000154;
        opacity: 0;
      }

      .cls-7 {
        fill: #fff;
      }

      .cls-3 {
        fill: #ffb82c;
      }

      .cls-4 {
        fill: #d43702;
      }

      .cls-5 {
        fill: #f94001;
      }

      .cls-6 {
        fill: #cc620c;
      }
    </style>
  </defs>
  <path class="cls-2" d="M0,280.07v-.07s0-.07,0-.07H0c0-154.6,125.33-279.93,279.93-279.93h.14c154.6,0,279.93,125.33,279.93,279.93v.14c0,154.6-125.33,279.93-279.93,279.93h-.14C125.33,560,0,434.67,0,280.07H0Z"/>
  <g>
    <path class="cls-1" d="M139.15,323.94l68.9,119.34c-9.05-17.88-8.49-37.89,1.67-55.51,10.17-17.61,27.22-28.1,47.23-29.2h163.01c4.62,0,7.51-5,5.2-9l-58.3-100.98-4.13-7.15h-173.62c-20,1.1-37.06,11.59-47.23,29.2-9.75,16.89-10.66,35.99-2.74,53.3h0Z"/>
    <path class="cls-5" d="M208.05,443.28l3.48,6.03c.07.12.15.24.22.36,10.32,15.69,26.49,24.99,45.26,26.02h0s95.31,0,95.31,0c4.62,0,7.51-5,5.2-9.01l-51.3-88.86-9.39-16.27c-1.07-1.86-3.05-3-5.2-3h-34.47c-.14,0-.29,0-.43.01-19.91,1.17-36.88,11.65-47.01,29.19-10.17,17.61-10.72,37.63-1.67,55.51h0Z"/>
    <path class="cls-4" d="M295.11,358.57h-38.15c-20,1.1-37.06,11.59-47.23,29.2l-.45.79-.02.03-.46.83-.39.73-.05.1-.12.24-.29.58-.06.12-.33.68-.15.32-.23.49-.17.38-.21.47-.17.37-.19.44-.17.4-.18.42-.19.47-.14.35-.18.46-.15.38-.16.43-.17.47-.12.35-.15.42-.18.53-.08.24-.18.56-.13.4-.12.39-.15.5-.1.35-.15.54-.08.3-.12.47-.12.47v.04s-.18.68-.18.68l-.02.07-.11.48-.09.4v.05s-.17.75-.17.75l-.02.09-.16.79v.05s-.16.83-.16.83h0s-.14.86-.14.86v.02s-.13.82-.13.82v.06s-.11.79-.11.79c-.07.53-.13,1.06-.18,1.6v.12c-.06.5-.1,1-.14,1.51l-.02.24-.03.55-.02.32-.02.55v.3s-.03.53-.03.53v.38s-.01.57-.01.57v.19s0,.64,0,.64v.3s.01.53.01.53v.29s.03.63.03.63v.21s.04.64.04.64v.23s.05.61.05.61l.02.29.05.58.02.22.06.67v.1c.12,1.1.27,2.2.45,3.3v.07c.47,2.79,1.14,5.56,2.03,8.3v.02s.26.77.26.77l.03.08.25.71.05.16.25.68.05.12.29.77v.03s.3.73.3.73l.07.18.28.66.05.12.3.7.06.14.32.7v.03s.01,0,.01,0l.96,1.66c-2.47-13.3-.1-27.02,7.12-39.53,10.17-17.61,27.22-28.1,47.23-29.2h41.72l-8.91-15.44h0Z"/>
    <path class="cls-3" d="M71.31,206.81l68.9,119.34h.21s-1.28-2.21-1.28-2.21c-7.92-17.3-7.01-36.41,2.74-53.3,10.17-17.61,27.22-28.1,47.23-29.2h77.95s220.52,0,220.52,0c4.62,0,7.51-5,5.2-9.01l-49.75-86.16-10.4-18.02h0c-1.45-2.51-3.93-3.94-6.82-3.94H121.28c-20,1.1-37.06,11.59-47.23,29.2-9.75,16.89-10.66,35.99-2.74,53.3h0Z"/>
    <rect class="cls-7" x="208.05" y="443.27" width="0" height="0" transform="translate(-192.05 160.96) rotate(-29.65)"/>
    <path class="cls-6" d="M139.15,323.94l.96,1.67c-2.47-13.3-.1-27.02,7.12-39.53,10.17-17.61,27.22-28.1,47.23-29.2h177.18s-4.79-8.29-4.79-8.29l-4.13-7.15h-173.62c-20,1.1-37.06,11.59-47.23,29.21-9.75,16.89-10.66,35.99-2.74,53.3h0Z"/>
  </g>
</svg>